<svg width="18" height="15" viewBox="0 0 18 15" fill="none" xmlns="http://www.w3.org/2000/svg">
<path d="M0.514461 1C0.768465 0.753137 1.02892 0.5 1.94613 0.5H5.83839C6.45003 0.5 7.02831 0.76 7.3953 1.2L8.39617 2.4C8.42206 2.43105 8.45564 2.45625 8.49425 2.47361C8.53285 2.49096 8.57542 2.5 8.61858 2.5H14.457C14.7519 2.5 15.0348 2.60536 15.2433 2.79289C15.4519 2.98043 15.569 3.23478 15.569 3.5V4H3.05821C2.837 4 2.62485 4.07902 2.46844 4.21967C2.31202 4.36032 2.22415 4.55109 2.22415 4.75C2.22415 4.94891 2.31202 5.13968 2.46844 5.28033C2.62485 5.42098 2.837 5.5 3.05821 5.5H16.887C17.0441 5.49988 17.1994 5.52969 17.3428 5.58747C17.4861 5.64525 17.6143 5.72969 17.7187 5.83522C17.8231 5.94075 17.9015 6.06499 17.9487 6.19974C17.9959 6.33449 18.0107 6.4767 17.9924 6.617L17.1894 12.75C17.1894 13.2141 16.9844 13.6592 16.6194 13.9874C16.2545 14.3156 15.7595 14.5 15.2433 14.5H1.94613C1.42998 14.5 0.934978 14.3156 0.570008 13.9874C0.205038 13.6592 0 13.2141 0 12.75V2.25C0 1.786 0.260457 1.24686 0.514461 1Z" fill="#4C4C4C"/>
</svg>
