<svg width="13" height="17" viewBox="0 0 13 17" fill="none" xmlns="http://www.w3.org/2000/svg">
<path fill-rule="evenodd" clip-rule="evenodd" d="M7.35059 0.510593C7.45483 0.531388 7.5515 0.582528 7.62777 0.658898L12.8413 5.87924C12.9429 5.98095 13 6.11887 13 6.26271V14.4661C13 15.0055 12.7864 15.5232 12.4054 15.9047C12.0245 16.2861 11.5075 16.5 10.9688 16.5H2.03125C1.49253 16.5 0.975497 16.2861 0.594564 15.9047C0.213631 15.5232 0 15.0055 0 14.4661V2.5339C0 1.99448 0.21363 1.47677 0.594564 1.09534C0.975497 0.713909 1.49253 0.5 2.03125 0.5H7.24479L7.35059 0.510593ZM2.03125 1.58475C1.77985 1.58475 1.53828 1.68429 1.36051 1.86229C1.18275 2.04029 1.08333 2.28217 1.08333 2.5339V14.4661C1.08333 14.7178 1.18275 14.9597 1.36051 15.1377C1.53828 15.3157 1.77985 15.4153 2.03125 15.4153H10.9688C11.2202 15.4153 11.4617 15.3157 11.6395 15.1377C11.8173 14.9597 11.9167 14.7178 11.9167 14.4661V9.04237H7.04167C6.74251 9.04237 6.5 8.79954 6.5 8.5V1.58475H2.03125ZM7.58333 7.95763H11.9167V6.48729L7.58333 2.14831V7.95763Z" fill="#4C4C4C"/>
</svg>
