<svg width="18" height="15" viewBox="0 0 18 15" fill="none" xmlns="http://www.w3.org/2000/svg">
<path d="M5.83887 0.5C6.45033 0.500135 7.02862 0.760309 7.39551 1.2002L8.39648 2.40039C8.42232 2.43124 8.45573 2.45635 8.49414 2.47363C8.53262 2.49093 8.57515 2.49994 8.61816 2.5H16C17.1046 2.5 18 3.39543 18 4.5V12.5C18 13.6046 17.1046 14.5 16 14.5H1.94629C1.43019 14.5 0.935273 14.3154 0.570312 13.9873C0.205342 13.6591 0 13.2141 0 12.75V2.25C0 1.786 0.260645 1.24686 0.514648 1C0.768622 0.753167 1.0292 0.5 1.94629 0.5H5.83887Z" fill="#4C4C4C"/>
</svg>
